<svg width="198" height="27" viewBox="0 0 198 27" fill="none" xmlns="http://www.w3.org/2000/svg">
<g clip-path="url(#clip0_3_466)">
<path d="M32.66 21H41L20.3401 1H12L32.66 21Z" fill="#ECB45D"/>
<path d="M25 1L44 20V1H38.8582V6.99866L32.8596 1L25 1Z" fill="#674639"/>
<path d="M9 2V21H14.3981V15.0171L20.6959 21H29L9 2Z" fill="#CDBAAB"/>
<path d="M59.3923 21.14C58.3656 21.14 57.4456 20.9733 56.6323 20.64C55.8189 20.3067 55.1656 19.8133 54.6723 19.16C54.1923 18.5067 53.9389 17.72 53.9123 16.8H57.5523C57.6056 17.32 57.7856 17.72 58.0923 18C58.3989 18.2667 58.7989 18.4 59.2923 18.4C59.7989 18.4 60.1989 18.2867 60.4923 18.06C60.7856 17.82 60.9323 17.4933 60.9323 17.08C60.9323 16.7333 60.8123 16.4467 60.5723 16.22C60.3456 15.9933 60.0589 15.8067 59.7123 15.66C59.3789 15.5133 58.8989 15.3467 58.2723 15.16C57.3656 14.88 56.6256 14.6 56.0523 14.32C55.4789 14.04 54.9856 13.6267 54.5723 13.08C54.1589 12.5333 53.9523 11.82 53.9523 10.94C53.9523 9.63333 54.4256 8.61333 55.3723 7.88C56.3189 7.13333 57.5523 6.76 59.0723 6.76C60.6189 6.76 61.8656 7.13333 62.8123 7.88C63.7589 8.61333 64.2656 9.64 64.3323 10.96H60.6323C60.6056 10.5067 60.4389 10.1533 60.1323 9.9C59.8256 9.63333 59.4323 9.5 58.9523 9.5C58.5389 9.5 58.2056 9.61333 57.9523 9.84C57.6989 10.0533 57.5723 10.3667 57.5723 10.78C57.5723 11.2333 57.7856 11.5867 58.2123 11.84C58.6389 12.0933 59.3056 12.3667 60.2123 12.66C61.1189 12.9667 61.8523 13.26 62.4123 13.54C62.9856 13.82 63.4789 14.2267 63.8923 14.76C64.3056 15.2933 64.5123 15.98 64.5123 16.82C64.5123 17.62 64.3056 18.3467 63.8923 19C63.4923 19.6533 62.9056 20.1733 62.1323 20.56C61.3589 20.9467 60.4456 21.14 59.3923 21.14ZM73.477 9.72C74.757 9.72 75.7836 10.1467 76.557 11C77.3303 11.84 77.717 13 77.717 14.48V21H74.317V14.94C74.317 14.1933 74.1236 13.6133 73.737 13.2C73.3503 12.7867 72.8303 12.58 72.177 12.58C71.5236 12.58 71.0036 12.7867 70.617 13.2C70.2303 13.6133 70.037 14.1933 70.037 14.94V21H66.617V6.2H70.037V11.34C70.3836 10.8467 70.857 10.4533 71.457 10.16C72.057 9.86667 72.7303 9.72 73.477 9.72ZM85.1735 21.16C84.0802 21.16 83.0935 20.9267 82.2135 20.46C81.3468 19.9933 80.6602 19.3267 80.1535 18.46C79.6602 17.5933 79.4135 16.58 79.4135 15.42C79.4135 14.2733 79.6668 13.2667 80.1735 12.4C80.6802 11.52 81.3735 10.8467 82.2535 10.38C83.1335 9.91333 84.1202 9.68 85.2135 9.68C86.3068 9.68 87.2935 9.91333 88.1735 10.38C89.0535 10.8467 89.7468 11.52 90.2535 12.4C90.7602 13.2667 91.0135 14.2733 91.0135 15.42C91.0135 16.5667 90.7535 17.58 90.2335 18.46C89.7268 19.3267 89.0268 19.9933 88.1335 20.46C87.2535 20.9267 86.2668 21.16 85.1735 21.16ZM85.1735 18.2C85.8268 18.2 86.3802 17.96 86.8335 17.48C87.3002 17 87.5335 16.3133 87.5335 15.42C87.5335 14.5267 87.3068 13.84 86.8535 13.36C86.4135 12.88 85.8668 12.64 85.2135 12.64C84.5468 12.64 83.9935 12.88 83.5535 13.36C83.1135 13.8267 82.8935 14.5133 82.8935 15.42C82.8935 16.3133 83.1068 17 83.5335 17.48C83.9735 17.96 84.5202 18.2 85.1735 18.2ZM96.2479 11.7C96.6479 11.0867 97.1479 10.6067 97.7479 10.26C98.3479 9.9 99.0146 9.72 99.7479 9.72V13.34H98.8079C97.9546 13.34 97.3146 13.5267 96.8879 13.9C96.4612 14.26 96.2479 14.9 96.2479 15.82V21H92.8279V9.84H96.2479V11.7ZM107.603 18.1V21H105.863C104.623 21 103.656 20.7 102.963 20.1C102.269 19.4867 101.923 18.4933 101.923 17.12V12.68H100.563V9.84H101.923V7.12H105.343V9.84H107.583V12.68H105.343V17.16C105.343 17.4933 105.423 17.7333 105.583 17.88C105.743 18.0267 106.009 18.1 106.383 18.1H107.603ZM108.828 15.42C108.828 14.26 109.061 13.2467 109.528 12.38C110.008 11.5133 110.668 10.8467 111.508 10.38C112.361 9.91333 113.334 9.68 114.428 9.68C115.828 9.68 116.994 10.0467 117.928 10.78C118.874 11.5133 119.494 12.5467 119.788 13.88H116.148C115.841 13.0267 115.248 12.6 114.368 12.6C113.741 12.6 113.241 12.8467 112.868 13.34C112.494 13.82 112.308 14.5133 112.308 15.42C112.308 16.3267 112.494 17.0267 112.868 17.52C113.241 18 113.741 18.24 114.368 18.24C115.248 18.24 115.841 17.8133 116.148 16.96H119.788C119.494 18.2667 118.874 19.2933 117.928 20.04C116.981 20.7867 115.814 21.16 114.428 21.16C113.334 21.16 112.361 20.9267 111.508 20.46C110.668 19.9933 110.008 19.3267 109.528 18.46C109.061 17.5933 108.828 16.58 108.828 15.42ZM132.637 9.84V21H129.217V19.48C128.87 19.9733 128.397 20.3733 127.797 20.68C127.21 20.9733 126.557 21.12 125.837 21.12C124.984 21.12 124.23 20.9333 123.577 20.56C122.924 20.1733 122.417 19.62 122.057 18.9C121.697 18.18 121.517 17.3333 121.517 16.36V9.84H124.917V15.9C124.917 16.6467 125.11 17.2267 125.497 17.64C125.884 18.0533 126.404 18.26 127.057 18.26C127.724 18.26 128.25 18.0533 128.637 17.64C129.024 17.2267 129.217 16.6467 129.217 15.9V9.84H132.637ZM141.314 18.1V21H139.574C138.334 21 137.367 20.7 136.674 20.1C135.98 19.4867 135.634 18.4933 135.634 17.12V12.68H134.274V9.84H135.634V7.12H139.054V9.84H141.294V12.68H139.054V17.16C139.054 17.4933 139.134 17.7333 139.294 17.88C139.454 18.0267 139.72 18.1 140.094 18.1H141.314ZM153.319 6.96V9.7H149.599V21H146.179V9.7H142.459V6.96H153.319ZM161.895 9.72C163.175 9.72 164.202 10.1467 164.975 11C165.748 11.84 166.135 13 166.135 14.48V21H162.735V14.94C162.735 14.1933 162.542 13.6133 162.155 13.2C161.768 12.7867 161.248 12.58 160.595 12.58C159.942 12.58 159.422 12.7867 159.035 13.2C158.648 13.6133 158.455 14.1933 158.455 14.94V21H155.035V6.2H158.455V11.34C158.802 10.8467 159.275 10.4533 159.875 10.16C160.475 9.86667 161.148 9.72 161.895 9.72ZM171.931 11.7C172.331 11.0867 172.831 10.6067 173.431 10.26C174.031 9.9 174.698 9.72 175.431 9.72V13.34H174.491C173.638 13.34 172.998 13.5267 172.571 13.9C172.145 14.26 171.931 14.9 171.931 15.82V21H168.511V9.84H171.931V11.7ZM178.786 8.68C178.186 8.68 177.693 8.50667 177.306 8.16C176.933 7.8 176.746 7.36 176.746 6.84C176.746 6.30667 176.933 5.86667 177.306 5.52C177.693 5.16 178.186 4.98 178.786 4.98C179.373 4.98 179.853 5.16 180.226 5.52C180.613 5.86667 180.806 6.30667 180.806 6.84C180.806 7.36 180.613 7.8 180.226 8.16C179.853 8.50667 179.373 8.68 178.786 8.68ZM180.486 9.84V21H177.066V9.84H180.486ZM188.565 12.68H186.725V21H183.305V12.68H182.065V9.84H183.305V9.52C183.305 8.14667 183.698 7.10667 184.485 6.4C185.271 5.68 186.425 5.32 187.945 5.32C188.198 5.32 188.385 5.32667 188.505 5.34V8.24C187.851 8.2 187.391 8.29333 187.125 8.52C186.858 8.74667 186.725 9.15333 186.725 9.74V9.84H188.565V12.68ZM196.392 18.1V21H194.652C193.412 21 192.445 20.7 191.752 20.1C191.058 19.4867 190.712 18.4933 190.712 17.12V12.68H189.352V9.84H190.712V7.12H194.132V9.84H196.372V12.68H194.132V17.16C194.132 17.4933 194.212 17.7333 194.372 17.88C194.532 18.0267 194.798 18.1 195.172 18.1H196.392Z" fill="#533520"/>
</g>
<defs>
<clipPath id="clip0_3_466">
<rect width="198" height="27" fill="white"/>
</clipPath>
</defs>
</svg>
